<svg xmlns="http://www.w3.org/2000/svg"
 xmlns:xlink="http://www.w3.org/1999/xlink"
 width="17px" height="13px"  viewBox="0 0 17 13">
<path fill-rule="evenodd"  fill="#000000"
 d="M2.1497803,7.5023193 C2.0498657,7.40271 2.0,7.2525635 2.0,7.1523438 C2.0,7.052124 2.0498657,6.902954 2.1497803,6.8029785 C2.1497803,6.8029785 2.8494873,6.1033936 2.8494873,6.1033936 C3.049286,5.9034424 3.349121,5.9034424 3.5490723,6.1033936 C3.5490723,6.1033936 3.59906,6.1531982 3.59906,6.1531982 C3.59906,6.1531982 6.347473,9.100952 6.347473,9.100952 C6.4473877,9.200806 6.59729,9.200806 6.6972046,9.100952 C6.6972046,9.100952 13.393372,2.156128 13.393372,2.156128 C13.393372,2.156128 13.44339,2.156128 13.44339,2.156128 C13.44339,2.156128 13.44339,2.156128 13.44339,2.156128 C13.44339,2.156128 13.44339,2.156128 13.44339,2.156128 C13.643188,1.956543 13.943054,1.956543 14.142975,2.156128 C14.142975,2.156128 14.842529,2.855835 14.842529,2.855835 C15.04248,3.055664 15.04248,3.3552246 14.842529,3.55542 C14.842529,3.55542 14.842529,3.55542 14.842529,3.55542 C14.842529,3.55542 14.842529,3.55542 14.842529,3.55542 C14.842529,3.55542 6.8471375,11.848999 6.8471375,11.848999 C6.747223,11.948975 6.6473083,11.9991455 6.497406,11.9991455 C6.347473,11.9991455 6.247467,11.948975 6.1475525,11.848999 C6.1475525,11.848999 2.249817,7.6520996 2.249817,7.6520996 C2.249817,7.6520996 2.1497803,7.5023193 2.1497803,7.5023193 Z"/>
</svg>