<svg xmlns="http://www.w3.org/2000/svg" width="16" height="20" viewBox="0 0 16 20"><path d="M10.7 2C10.7 2 3.8 2 3.8 2 2.8 2 2 2.8 2 3.8 2 3.8 2 17.2 2 17.2 2 18.2 2.8 19 3.8 19 3.8 19 13.2 19 13.2 19 14.2 19 15 18.2 15 17.2 15 17.2 15 6.3 15 6.3 15 6.3 10.7 2 10.7 2ZM13.2 17.9C13.2 17.9 3.8 17.9 3.8 17.9 3.4 17.9 3.1 17.6 3.1 17.2 3.1 17.2 3.1 3.8 3.1 3.8 3.1 3.4 3.4 3.1 3.8 3.1 3.8 3.1 10.3 3.1 10.3 3.1 10.3 3.1 10.3 5.5 10.3 5.5 10.3 6.2 10.8 6.7 11.5 6.7 11.5 6.7 13.9 6.7 13.9 6.7 13.9 6.7 13.9 17.2 13.9 17.2 13.9 17.6 13.6 17.9 13.2 17.9ZM6.6 9C6 9 5.6 9 5.2 9.1 5.2 9.1 5.2 13.6 5.2 13.6 5.2 13.6 6.3 13.6 6.3 13.6 6.3 13.6 6.3 12 6.3 12 6.4 12 6.5 12 6.6 12 7.2 12 7.8 11.9 8.1 11.5 8.4 11.3 8.6 10.9 8.6 10.4 8.6 10 8.4 9.6 8.1 9.4 7.8 9.1 7.3 9 6.6 9ZM6.6 11.2C6.5 11.2 6.4 11.2 6.3 11.2 6.3 11.2 6.3 9.8 6.3 9.8 6.3 9.8 6.5 9.8 6.7 9.8 7.2 9.8 7.5 10 7.5 10.5 7.5 10.9 7.2 11.2 6.6 11.2ZM11 10.9C10.4 10.7 10.2 10.5 10.2 10.3 10.2 10 10.4 9.8 10.8 9.8 11.3 9.8 11.6 9.9 11.8 10 11.8 10 12 9.2 12 9.2 11.8 9.1 11.4 9 10.9 9 9.8 9 9.1 9.6 9.1 10.3 9.1 11 9.6 11.4 10.4 11.7 10.9 11.9 11.2 12.1 11.2 12.3 11.2 12.6 10.9 12.8 10.4 12.8 10 12.8 9.5 12.7 9.3 12.6 9.3 12.6 9 13.4 9 13.4 9.3 13.6 9.8 13.7 10.4 13.7 11.6 13.7 12.2 13 12.2 12.3 12.2 11.6 11.8 11.2 11 10.9Z" fill="#7347c1"/></svg>