<svg xmlns="http://www.w3.org/2000/svg"
 xmlns:xlink="http://www.w3.org/1999/xlink"
 width="23px" height="24px"  viewBox="0 0 23 24">
<path fill-rule="evenodd"  fill="#000000"
 d="M15.792419,16.924438 C15.601868,17.11084 15.437866,17.315918 15.296082,17.532715 C15.296082,17.532715 9.012573,13.799072 9.012573,13.799072 C9.178772,13.391357 9.272949,12.949097 9.272949,12.484863 C9.272949,12.019653 9.178772,11.577026 9.012939,11.170166 C9.012939,11.170166 15.297913,7.4647827 15.297913,7.4647827 C15.943359,8.457214 17.074951,9.118652 18.363647,9.118652 C20.368652,9.118652 21.999939,7.5216064 21.999939,5.558716 C21.999939,3.5961304 20.368652,1.9993896 18.363647,1.9993896 C16.358582,1.9993896 14.727295,3.5961304 14.727295,5.558716 C14.727295,6.0061646 14.815674,6.432556 14.96991,6.8271484 C14.96991,6.8271484 8.676575,10.536865 8.676575,10.536865 C8.026367,9.567322 6.9071045,8.924866 5.6362305,8.924866 C3.6311035,8.924866 1.9998779,10.521606 1.9998779,12.484863 C1.9998779,14.447144 3.6311035,16.044067 5.6362305,16.044067 C6.9071045,16.044067 8.026001,15.401611 8.676147,14.432129 C8.676147,14.432129 14.968445,18.170898 14.968445,18.170898 C14.812134,18.57129 14.72699,18.999756 14.72699,19.441772 C14.72699,20.3927 15.105225,21.28601 15.792053,21.958252 C16.500793,22.652344 17.432007,22.999512 18.363342,22.999512 C19.294556,22.999512 20.225769,22.652344 20.934448,21.958252 C21.621338,21.28601 21.999573,20.3927 21.999573,19.441772 C21.999573,18.4906 21.621338,17.596191 20.934448,16.924438 C19.516663,15.536133 17.210205,15.536133 15.792419,16.924438 ZM18.363647,2.7109375 C19.96759,2.7109375 21.272644,3.9885864 21.272644,5.558716 C21.272644,7.1291504 19.96759,8.406494 18.363647,8.406494 C16.759644,8.406494 15.45459,7.1291504 15.45459,5.558716 C15.45459,3.9885864 16.759338,2.7109375 18.363647,2.7109375 ZM5.6365967,15.332275 C4.032593,15.332275 2.7276,14.0546875 2.7276,12.484863 C2.7276,10.914307 4.032593,9.636719 5.6365967,9.636719 C7.2406006,9.636719 8.545654,10.914307 8.545654,12.484863 C8.545654,14.0546875 7.2406006,15.332275 5.6365967,15.332275 ZM20.420288,21.455078 C19.286194,22.565186 17.440735,22.565186 16.30658,21.455078 C15.757202,20.91687 15.45459,20.201294 15.45459,19.441772 C15.45459,18.68103 15.757202,17.965454 16.30658,17.42749 C16.873901,16.872803 17.61853,16.595215 18.363647,16.595215 C19.108704,16.595215 19.853455,16.872803 20.420776,17.42749 C20.970215,17.965454 21.272644,18.68103 21.272644,19.441772 C21.272644,20.201294 20.970215,20.91687 20.420288,21.455078 Z"/>
</svg>